# xmcd
#
# Track frame offsets:
#	150
#	22632
#	45657
#	71037
#	92832
#	114105
#	131500
#	161675
#	190202
#	215817
#
# Disc length: 3079 seconds
#
# Revision: 1
# Processed by: cddbd v1.5.2PL0 Copyright (c) Steve Scherf et al.
# Submitted via: EZCDAudioConverter 8.0.2.1
#
DISCID=830c050a
DTITLE=Don Hồ, Ngọc Lan, Ý Lan - Còn Nhớ Em, Xin Cứ Về
DYEAR=1995
DGENRE=World Pop
TTITLE0=Don Hồ - Thương một người
TTITLE1=Ngọc Lan - Sầu tình
TTITLE2=Ý Lan - Ru đời chỉ là giấc mơ
TTITLE3=Ngọc Lan - Còn Nhớ Em, Xin Cứ Về
TTITLE4=Ngọc Lan - Chuyện tình không suy tư
TTITLE5=Ý Lan - Tình ca mùa hạ
TTITLE6=Don Hồ - Ướt mi
TTITLE7=Ngọc Lan - Ngăn cách
TTITLE8=Ý Lan - Trảlại em
TTITLE9=Ý Lan - Đời còn vắng bước em
EXTD=
EXTT0=
EXTT1=
EXTT2=
EXTT3=
EXTT4=
EXTT5=
EXTT6=
EXTT7=
EXTT8=
EXTT9=
PLAYORDER=
